#!OML:ASF X:\für Bonn\!DataBase\2005_08_12_Daniel\c3d\Daniel.ASF
:FULLY-SPECIFIED
:DEGREES
1
root -26.3009 17.3854 26.223 -179.56 58.8468 539.048
lowerback 8.34421 -1.51154 -2.70813
upperback 3.33257 -2.09049 -1.05526
thorax -1.16656 -0.99233 0.621421
lowerneck -0.874899 5.17218 -2.65334
upperneck 8.43589 7.31332 -1.61826
head 2.79617 3.5654 0.129688
rclavicle 2.05742e-014 1.11319e-014
rhumerus -35.5851 1.72226 -88.9531
rradius 26.8954
rwrist 13.6796
rhand -20.4071 19.1727
rfingers 7.12502
rthumb 5.94683 -10.7238
lclavicle 2.05742e-014 1.11319e-014
lhumerus -34.0909 0.893146 88.8251
lradius 58.496
lwrist 11.8184
lhand -12.9093 -6.52806
lfingers 7.12502
lthumb 13.1806 23.0353
rfemur -15.3889 20.1649 19.582
rtibia 37.0768
rfoot -24.208 11.727
rtoes -10.3934
lfemur -3.81093 -7.28036 -19.387
ltibia 36.876
lfoot -30.8154 -10.4958
ltoes -3.62244
2
root -26.3152 17.3792 26.2094 -179.53 59.6378 539
lowerback 8.52185 -1.67172 -2.93466
upperback 3.38876 -2.32171 -1.04799
thorax -1.18928 -1.10755 0.780537
lowerneck -0.668498 5.26639 -2.57748
upperneck 8.23619 7.43139 -1.78668
head 2.70073 3.62485 0.0561917
rclavicle -4.25399e-014 8.34896e-015
rhumerus -35.378 0.775843 -88.5595
rradius 26.3412
rwrist 14.321
rhand -20.6279 19.3494
rfingers 7.12502
rthumb 5.73365 -10.5531
lclavicle -4.25399e-014 8.34896e-015
lhumerus -34.3816 1.10223 88.8673
lradius 58.9813
lwrist 12.4775
lhand -12.8691 -6.57548
lfingers 7.12502
lthumb 13.2194 22.9854
rfemur -15.89 19.7766 19.3399
rtibia 37.4192
rfoot -23.9782 12.7348
rtoes -10.3424
lfemur -3.44186 -7.01957 -19.6285
ltibia 36.3841
lfoot -31.1208 -10.099
ltoes -3.46851
3
root -26.3326 17.3718 26.1943 -179.501 60.4104 538.952
lowerback 8.71076 -1.8144 -3.11123
upperback 3.45908 -2.52574 -1.06445
thorax -1.20595 -1.20846 0.885583
lowerneck -0.547495 5.32535 -2.51925
upperneck 8.08712 7.50401 -1.91221
head 2.63615 3.66093 0.00192933
rclavicle 6.63941e-014 -3.57812e-015
rhumerus -35.196 -0.257648 -88.172
rradius 25.7785
rwrist 14.9385
rhand -20.7643 19.5812
rfingers 7.12502
rthumb 5.60192 -10.3248
lclavicle 6.63941e-014 -3.57812e-015
lhumerus -34.6383 1.20075 88.9497
lradius 59.4527
lwrist 13.0687
lhand -12.9907 -6.59494
lfingers 7.12502
lthumb 13.1022 22.9735
rfemur -16.4269 19.4115 19.0975
rtibia 37.8277
rfoot -23.7304 13.6902
rtoes -9.93104
lfemur -3.09699 -6.77003 -19.8725
ltibia 35.9272
lfoot -31.3647 -9.66896
ltoes -2.91971
4
root -26.3482 17.3606 26.1804 -179.537 61.1914 538.908
lowerback 8.98666 -1.96552 -3.32502
upperback 3.51898 -2.74793 -1.06928
thorax -1.27668 -1.31762 1.02927
lowerneck -0.32906 5.40749 -2.49346
upperneck 7.93293 7.60745 -2.04729
head 2.55177 3.71312 -0.0525816
rclavicle 4.24405e-014 -8.74653e-015
rhumerus -35.204 -1.02532 -87.8631
rradius 25.3347
rwrist 15.3007
rhand -20.8101 19.7745
rfingers 7.12502
rthumb 5.55767 -10.1326
lclavicle 4.24405e-014 -8.74653e-015
lhumerus -34.951 1.40647 89.0049
lradius 59.9158
lwrist 13.5666
lhand -13.0173 -6.68195
lfingers 7.12502
lthumb 13.0765 22.8881
rfemur -16.9019 19.0033 18.9089
rtibia 38.3042
rfoot -23.556 14.5211
rtoes -9.79507
lfemur -2.69511 -6.50215 -20.1266
ltibia 35.5002
lfoot -31.6649 -9.26066
ltoes -2.78115
5
root -26.36 17.3472 26.1655 -179.736 61.955 538.673
lowerback 9.20352 -2.11221 -3.66013
upperback 3.61 -2.97055 -1.0807
thorax -1.27436 -1.42859 1.23175
lowerneck -0.183373 5.47435 -2.52412
upperneck 7.7602 7.69193 -2.18199
head 2.47261 3.75375 -0.0961078
rclavicle -2.49475e-014 6.36111e-015
rhumerus -35.3007 -1.44591 -87.6706
rradius 25.0419
rwrist 15.2845
rhand -20.8121 19.766
rfingers 7.12502
rthumb 5.55582 -10.1411
lclavicle -2.49475e-014 6.36111e-015
lhumerus -35.2495 1.66028 89.1267
lradius 60.4473
lwrist 13.9951
lhand -13.1732 -6.65123
lfingers 7.12502
lthumb 12.9263 22.9284
rfemur -17.4017 18.6793 18.6351
rtibia 38.8443
rfoot -23.4861 15.225
rtoes -9.82484
lfemur -2.30969 -6.22294 -20.4612
ltibia 35.0988
lfoot -31.9309 -8.82761
ltoes -2.61117
6
root -26.3686 17.3331 26.1498 -180.015 62.7005 538.391
lowerback 9.43016 -2.22865 -3.94733
upperback 3.71005 -3.14994 -1.15841
thorax -1.27402 -1.51673 1.33578
lowerneck -0.0140101 5.51264 -2.51038
upperneck 7.63059 7.73317 -2.24676
head 2.40252 3.77583 -0.125901
rclavicle -3.98563e-014 1.90833e-014
rhumerus -35.4406 -2.0652 -87.5024
rradius 24.7237
rwrist 15.3741
rhand -20.7494 19.7515
rfingers 7.12502
rthumb 5.61632 -10.1541
lclavicle -3.98563e-014 1.90833e-014
lhumerus -35.54 1.72984 89.1793
lradius 60.9198
lwrist 14.3657
lhand -13.3255 -6.78093
lfingers 7.12502
lthumb 12.7794 22.8079
rfemur -17.873 18.4158 18.3726
rtibia 39.447
rfoot -23.4129 15.7988
rtoes -9.75145
lfemur -1.87947 -5.98374 -20.8228
ltibia 34.7124
lfoot -32.2338 -8.41006
ltoes -2.61323
7
root -26.3787 17.3149 26.1346 -180.44 63.4046 538.075
lowerback 9.80964 -2.35752 -4.25304
upperback 3.8429 -3.35148 -1.23441
thorax -1.31915 -1.61388 1.46068
lowerneck 0.0994939 5.54215 -2.51757
upperneck 7.48773 7.76712 -2.35698
head 2.33957 3.79216 -0.164914
rclavicle -2.44505e-014 -5.56597e-015
rhumerus -35.5688 -2.57364 -87.3309
rradius 24.3723
rwrist 15.4156
rhand -20.5181 19.6724
rfingers 7.12502
rthumb 5.83963 -10.2272
lclavicle -2.44505e-014 -5.56597e-015
lhumerus -35.8676 2.18196 89.2235
lradius 61.4956
lwrist 14.5123
lhand -13.3804 -6.88257
lfingers 7.12502
lthumb 12.7265 22.7096
rfemur -18.259 18.0376 18.1506
rtibia 40.1223
rfoot -23.4053 16.3064
rtoes -10.0094
lfemur -1.33608 -5.79709 -21.22
ltibia 34.3099
lfoot -32.5021 -7.90717
ltoes -2.6345
8
root -26.3894 17.2948 26.1187 -180.972 64.1131 537.664
lowerback 10.2048 -2.47838 -4.54142
upperback 3.98643 -3.5425 -1.36689
thorax -1.36478 -1.70445 1.51819
lowerneck 0.241809 5.58123 -2.59299
upperneck 7.30589 7.80117 -2.3322
head 2.24979 3.81075 -0.152709
rclavicle 2.24627e-014 -7.95139e-016
rhumerus -35.7204 -2.88193 -87.3283
rradius 24.064
rwrist 15.2506
rhand -20.4314 19.4779
rfingers 7.12502
rthumb 5.92336 -10.4193
lclavicle 2.24627e-014 -7.95139e-016
lhumerus -36.1806 2.68182 89.2388
lradius 62.0531
lwrist 14.5449
lhand -13.4212 -7.08513
lfingers 7.12502
lthumb 12.6872 22.5095
rfemur -18.6558 17.6702 17.8961
rtibia 40.8694
rfoot -23.4363 16.8263
rtoes -9.904
lfemur -0.750758 -5.6482 -21.6665
ltibia 33.8654
lfoot -32.7564 -7.37597
ltoes -2.70088
9
root -26.3963 17.274 26.1022 -181.914 64.8033 536.831
lowerback 10.5962 -2.57871 -5.02487
upperback 4.14429 -3.72436 -1.53675
thorax -1.38094 -1.79124 1.64464
lowerneck 0.285793 5.60169 -2.65568
upperneck 7.23708 7.82384 -2.35619
head 2.21782 3.82045 -0.152461
rclavicle 2.36554e-014 1.90833e-014
rhumerus -35.8938 -3.34665 -87.2358
rradius 23.7735
rwrist 15.3348
rhand -20.1871 19.2657
rfingers 7.12502
rthumb 6.15915 -10.6248
lclavicle 2.36554e-014 1.90833e-014
lhumerus -36.4837 3.11839 89.2908
lradius 62.6938
lwrist 14.8189
lhand -13.5511 -7.17875
lfingers 7.12502
lthumb 12.5619 22.4236
rfemur -19.0585 17.2501 17.4752
rtibia 41.6917
rfoot -23.5039 17.2691
rtoes -10.1539
lfemur -0.120827 -5.44317 -22.285
ltibia 33.3744
lfoot -32.9735 -6.87364
ltoes -2.84476
10
root -26.4012 17.2535 26.0835 -183.238 65.4555 535.6
lowerback 11.0292 -2.66713 -5.59937
upperback 4.26745 -3.90784 -1.77685
thorax -1.45114 -1.87636 1.75296
lowerneck 0.417054 5.6234 -2.77038
upperneck 7.13053 7.83874 -2.30305
head 2.15233 3.82857 -0.123835
rclavicle 1.98785e-015 3.81667e-014
rhumerus -36.1764 -3.88334 -87.1409
rradius 23.5153
rwrist 15.5745
rhand -19.9614 18.9581
rfingers 7.12502
rthumb 6.37706 -10.9259
lclavicle 1.98785e-015 3.81667e-014
lhumerus -36.8434 3.53217 89.3507
lradius 63.33
lwrist 15.0057
lhand -13.6977 -7.40105
lfingers 7.12502
lthumb 12.4206 22.2099
rfemur -19.4808 16.6405 16.8981
rtibia 42.5589
rfoot -23.5504 17.7165
rtoes -10.3021
lfemur 0.546958 -5.33946 -23.1057
ltibia 32.8632
lfoot -33.1347 -6.2765
ltoes -2.7975
